<?xml version="1.0" encoding="UTF-8" standalone="no"?>
<!-- Created with Inkscape (http://www.inkscape.org/) -->

<svg
   xmlns:osb="http://www.openswatchbook.org/uri/2009/osb"
   xmlns:dc="http://purl.org/dc/elements/1.1/"
   xmlns:cc="http://creativecommons.org/ns#"
   xmlns:rdf="http://www.w3.org/1999/02/22-rdf-syntax-ns#"
   xmlns:svg="http://www.w3.org/2000/svg"
   xmlns="http://www.w3.org/2000/svg"
   xmlns:sodipodi="http://sodipodi.sourceforge.net/DTD/sodipodi-0.dtd"
   xmlns:inkscape="http://www.inkscape.org/namespaces/inkscape"
   id="svg4136"
   version="1.1"
   inkscape:version="0.91 r13725"
   width="128"
   height="122"
   viewBox="0 0 128 122"
   sodipodi:docname="logo.svg"
   inkscape:export-filename="C:\Users\baranov\Pictures\logo_footer.png"
   inkscape:export-xdpi="80.230553"
   inkscape:export-ydpi="80.230553">
  <defs
     id="defs3">
    <style
       type="text/css"
       id="style5">
          @keyframes fill-change {
          0% {
          fill: #eee;
          }

          100% {
          fill: #B7DEEB;
          }
          }

          #svg4136:hover g {
          animation: 1s ease fill-change ;
          fill: #B7DEEB;
          }
          #svg4136:blur g {
          animation: 1s ease fill-change reverse ;
          fill: #eee;
          }
          #svg4136 g {

          fill: #eee;
          }
        </style>
  </defs>
  <metadata
     id="metadata4142">
    <rdf:RDF>
      <cc:Work
         rdf:about="">
        <dc:format>image/svg+xml</dc:format>
        <dc:type
           rdf:resource="http://purl.org/dc/dcmitype/StillImage" />
        <dc:title />
      </cc:Work>
    </rdf:RDF>
  </metadata>
  <defs
     id="defs4140">
    <linearGradient
       id="linearGradient4150"
       osb:paint="solid">
      <stop
         style="stop-color:#fe8934;stop-opacity:1;"
         offset="0"
         id="stop4152" />
    </linearGradient>
    <filter
       style="color-interpolation-filters:sRGB;"
       inkscape:label="Drop Shadow"
       id="filter8457">
      <feFlood
         flood-opacity="0.498039"
         flood-color="rgb(25,25,25)"
         result="flood"
         id="feFlood8459" />
      <feComposite
         in="flood"
         in2="SourceGraphic"
         operator="in"
         result="composite1"
         id="feComposite8461" />
      <feGaussianBlur
         in="composite1"
         stdDeviation="2.1"
         result="blur"
         id="feGaussianBlur8463" />
      <feOffset
         dx="-1.5"
         dy="2.3"
         result="offset"
         id="feOffset8465" />
      <feComposite
         in="SourceGraphic"
         in2="offset"
         operator="over"
         result="composite2"
         id="feComposite8467" />
    </filter>
    <filter
       style="color-interpolation-filters:sRGB;"
       inkscape:label="Drop Shadow"
       id="filter8673">
      <feFlood
         flood-opacity="0.498039"
         flood-color="rgb(25,25,25)"
         result="flood"
         id="feFlood8675" />
      <feComposite
         in="flood"
         in2="SourceGraphic"
         operator="in"
         result="composite1"
         id="feComposite8677" />
      <feGaussianBlur
         in="composite1"
         stdDeviation="1.7"
         result="blur"
         id="feGaussianBlur8679" />
      <feOffset
         dx="0.3"
         dy="-0.5"
         result="offset"
         id="feOffset8681" />
      <feComposite
         in="SourceGraphic"
         in2="offset"
         operator="over"
         result="composite2"
         id="feComposite8683" />
    </filter>
  </defs>
  <sodipodi:namedview
     pagecolor="#ffffff"
     bordercolor="#666666"
     borderopacity="1"
     objecttolerance="10"
     gridtolerance="10"
     guidetolerance="10"
     inkscape:pageopacity="0"
     inkscape:pageshadow="2"
     inkscape:window-width="1920"
     inkscape:window-height="1017"
     id="namedview4138"
     showgrid="false"
     inkscape:zoom="4.9265636"
     inkscape:cx="61.097225"
     inkscape:cy="45.005512"
     inkscape:window-x="-8"
     inkscape:window-y="-8"
     inkscape:window-maximized="1"
     inkscape:current-layer="svg4136" />
  <g
     class="shape-element"
     fill="#fff"
     transform="matrix(2.0652916,0,0,1.8499209,-51.264262,-70.501538)"
     style="font-style:normal;font-weight:normal;font-size:40px;line-height:125%;font-family:sans-serif;letter-spacing:0px;word-spacing:0px;fill-opacity:1;stroke:#ffffff;stroke-width:1px;stroke-linecap:butt;stroke-linejoin:miter;stroke-opacity:1"
     id="flowRoot7781">
    <path
       d="M 75.748367,64.274212 75.380893,75.450549 74.14996,75.295376 c -0.807292,-2.695313 -1.19518,-4.713004 -2.692576,-5.8979 -1.497396,-1.184896 -2.600107,-1.453885 -4.695665,-1.38941 -1.888795,0.05811 -3.789991,0.661656 -4.348649,0.882136 -1.759891,0.69456 -2.956039,1.218472 -3.776351,3.171597 -0.807292,1.953125 -1.836402,4.381511 -1.836402,7.285156 0,2.395833 1.009579,4.317483 1.777808,6.075295 0.768229,1.757813 2.476541,3.260643 4.012999,4.198143 1.380778,0.874872 2.085091,0.968938 4.737001,1.40625 1.623013,0.267642 3.945845,-0.296328 5.123611,-0.898641 0.856288,-0.229557 2.788903,-1.127443 4.062893,-2.136717 0.340594,0.21587 0.115663,1.08873 0.257989,1.787187 -1.056268,0.564724 -1.607474,1.208772 -2.385903,1.477098 -2.747398,0.947034 -2.005533,1.278356 -7.05691,1.599547 -3.399724,0.216171 -8.224962,-1.104448 -11.661836,-4.992537 -1.796875,-2.421875 -2.695313,-5.273437 -2.695313,-8.554687 0,-2.643229 0.592508,-5.071575 1.777344,-7.285156 1.184896,-2.213693 3.15998,-3.434963 5.230292,-4.438438 1.957809,-0.585667 3.993502,-1.47617 6.468927,-1.370417 1.640286,0.07007 1.978784,0.102947 5.733558,0.552795 0.546875,0.286459 0.868004,0.119341 1.102379,0.119341 0.351563,0 0.657552,-0.123698 0.917969,-0.371094 0.338541,-0.351563 0.579427,-1.538125 0.722656,-2.163125 z"
       style="font-style:normal;font-variant:normal;font-weight:normal;font-stretch:normal;font-family:'Times New Roman';-inkscape-font-specification:'Times New Roman, ';filter:url(#filter8673);fill-opacity:1;stroke:#ffffff;stroke-opacity:1"
       id="path7790"
       inkscape:connector-curvature="0"
       sodipodi:nodetypes="cccssscsscscccsscsscscsccc" />
  </g>
  <g
     class="shape-element"
     fill="#fff"
     id="g7792"
     style="stroke:#ffffff;stroke-opacity:1;stroke-width:1;stroke-miterlimit:4;stroke-dasharray:none;stroke-linejoin:round;filter:url(#filter8457);fill-opacity:1">
    <path
       style="color:#000000;font-style:normal;font-variant:normal;font-weight:normal;font-stretch:normal;font-size:medium;line-height:normal;font-family:sans-serif;text-indent:0;text-align:start;text-decoration:none;text-decoration-line:none;text-decoration-style:solid;text-decoration-color:#000000;letter-spacing:normal;word-spacing:normal;text-transform:none;direction:ltr;block-progression:tb;writing-mode:lr-tb;baseline-shift:baseline;text-anchor:start;white-space:normal;clip-rule:nonzero;display:inline;overflow:visible;visibility:visible;opacity:1;isolation:auto;mix-blend-mode:normal;color-interpolation:sRGB;color-interpolation-filters:linearRGB;solid-color:#000000;solid-opacity:1;fill-opacity:1;fill-rule:nonzero;stroke:#ffffff;stroke-width:1;stroke-linecap:butt;stroke-linejoin:round;stroke-miterlimit:4;stroke-dasharray:none;stroke-dashoffset:0;stroke-opacity:1;color-rendering:auto;image-rendering:auto;shape-rendering:auto;text-rendering:auto;enable-background:accumulate"
       d="M 64.308594 1.109375 C 32.891759 1.3767482 6.6111999 25.502191 4.2851562 56.878906 C 1.884079 89.267774 26.018087 116.99236 58.615234 120.41406 C 91.212382 123.83576 120.54606 101.72631 125.05273 69.558594 L 123.80859 69.384766 C 119.39487 100.88906 90.689293 122.37454 58.746094 119.02148 C 26.802894 115.66842 3.1855703 88.693288 5.5371094 56.972656 C 7.8886484 25.252024 35.219267 1.1080531 67.314453 2.4121094 C 99.402373 3.7158703 122.09918 29.908096 121.83008 61.703125 C 121.31497 70.36849 113.68109 91.577103 90.666016 82.041016 C 87.984727 80.930049 83.657736 78.072202 80.126953 73.783203 L 67.119141 52.810547 C 71.341432 49.087661 71.263899 49.588415 74.707031 46.314453 C 75.671301 45.459892 78.877414 41.073927 79.390625 35.863281 C 79.757691 32.136445 78.624649 29.188626 75.976562 26.5 C 73.146317 24.243739 72.855436 24.344561 69.535156 23.226562 C 65.783698 22.202324 59.934498 21.691406 51.990234 21.691406 L 24.738281 21.691406 L 24.738281 23.466797 L 27.550781 23.466797 C 30.382762 23.466797 32.516791 24.171751 33.951172 25.580078 C 34.980983 26.572308 35.496094 29.115937 35.496094 33.212891 L 35.496094 75.271484 C 35.496094 78.984349 35.110249 81.335895 34.337891 82.328125 C 32.977068 84.120548 30.471652 83.347723 27.695312 84.15625 L 24.738281 85.017578 L 24.738281 86.792969 L 56.791016 86.792969 L 56.791016 85.017578 L 53.580078 84.15625 C 52.970072 83.992649 48.981254 84.315572 47.578125 82.904297 C 46.548311 81.912067 46.033203 79.368438 46.033203 75.271484 L 46.033203 56.355469 C 46.621667 56.38748 47.192455 56.419161 47.744141 56.451172 L 49.287109 56.451172 C 50.464037 56.451172 51.991457 56.41949 53.867188 56.355469 C 63.592999 65.739706 70.35443 76.605916 83.064453 84.498047 C 94.66654 91.277321 119.58515 98.940459 124.09766 61.640625 L 124.07227 61.640625 C 124.31003 29.208146 100.0856 2.4876612 67.365234 1.1582031 C 66.341732 1.1166173 65.32204 1.1007501 64.308594 1.109375 z M 54.695312 25.339844 C 59.51336 25.339844 62.225318 26.619091 65.130859 29.179688 C 68.073179 31.708277 68.683594 34.431149 68.683594 38.496094 C 68.683594 42.657063 66.863776 46.082858 63.222656 48.771484 C 59.618315 51.460111 56.258171 53.378906 49.123047 53.378906 L 47.853516 53.378906 C 47.33861 53.346852 46.732006 53.330078 46.033203 53.330078 L 46.033203 26.251953 C 49.674322 25.64381 52.562132 25.339844 54.695312 25.339844 z "
       id="path4146" />
    <g
       id="flowRoot4156"
       style="font-style:normal;font-weight:normal;font-size:45px;line-height:125%;font-family:sans-serif;letter-spacing:0px;word-spacing:0px;fill-opacity:1;stroke:#ffffff;stroke-width:0.42693902;stroke-linecap:butt;stroke-linejoin:round;stroke-opacity:1;stroke-miterlimit:4;stroke-dasharray:none"
       transform="matrix(2.5107791,0,0,2.185042,-39.535795,-53.929988)" />
  </g>
</svg>
